Coordinates
version=1
nRows=18
nColumns=19
inDegrees=yes

Units are S.I. units (second, meters, Newtons, ...)
If the header above contains a line with 'inDegrees', this indicates whether rotational values are in degrees (yes) or radians (no).

endheader
time	pelvis_tilt	pelvis_list	pelvis_rotation	pelvis_tx	pelvis_ty	pelvis_tz	hip_flexion_r	hip_adduction_r	hip_rotation_r	knee_angle_r	knee_angle_r_beta	ankle_angle_r	hip_flexion_l	hip_adduction_l	hip_rotation_l	knee_angle_l	knee_angle_l_beta	ankle_angle_l
     16.75333333	      4.59643113	      4.40333190	      0.44676205	      2.18283072	      0.86578568	      1.05402441	    -20.61191779	    -10.24056810	    -18.42349044	     54.17668491	      0.94556153	    -11.07210889	     19.63180961	      6.75447701	     -2.55583202	     25.19211899	      0.43968542	     -3.08637461
     16.76000000	      5.33985879	      4.95340642	      0.98581042	      2.18292481	      0.86197851	      1.05299242	    -20.22112358	    -10.87351951	    -18.17021867	     57.76059842	      1.00811262	    -10.41794591	     18.85186681	      7.55055852	     -2.79578282	     27.50056490	      0.47997540	     -0.93328023
     16.76666667	      5.27054649	      5.13475337	      1.48720311	      2.18265625	      0.85723795	      1.05195753	    -18.61899426	    -11.07213618	    -17.40082296	     61.56426440	      1.07449912	     -9.76246086	     19.11028070	      7.92381218	     -2.87064685	     30.19873829	      0.52706741	      1.54248580
     16.77333333	      6.02635267	      5.62935187	      2.01074561	      2.18223284	      0.85331844	      1.05109292	    -18.03064730	    -11.55854851	    -17.02098456	     65.07838822	      1.13583215	     -9.18559554	     18.20913717	      8.66294806	     -2.59655874	     32.45373546	      0.56642454	      4.14076552
     16.78000000	      5.76400312	      5.68523869	      2.56775421	      2.18135540	      0.84834613	      1.05010522	    -15.98973883	    -11.57324206	    -16.24445334	     68.80802156	      1.20092653	     -8.56903562	     18.63888923	      8.92374602	     -2.24547201	     35.11603587	      0.61289045	      6.72451128
     16.78666667	      5.99678825	      5.94975817	      3.04263844	      2.18026716	      0.84404444	      1.04930452	    -14.48746121	    -11.82749744	    -15.62537008	     72.32628129	      1.26233174	     -7.99685033	     18.34180092	      9.38422909	     -1.78788621	     37.40452507	      0.65283212	      9.26721790
     16.79333333	      6.17076597	      6.21582211	      3.46206605	      2.17886856	      0.83990395	      1.04858249	    -12.78299901	    -12.10662695	    -14.95803245	     75.77402000	      1.32250614	     -7.46052092	     18.04043456	      9.82355753	     -1.30716834	     39.52029651	      0.68975930	     11.62309066
     16.80000000	      6.36040281	      6.51843089	      3.79399025	      2.17722071	      0.83605640	      1.04800558	    -10.98063326	    -12.44910597	    -14.23447574	     79.09867380	      1.38053229	     -6.91686064	     17.63760409	     10.24618725	     -0.89335171	     41.42966030	      0.72308398	     13.76863024
     16.80666667	      6.47522326	      6.81524774	      4.02867486	      2.17534589	      0.83253787	      1.04751704	     -8.94474652	    -12.81883342	    -13.39539177	     82.29887340	      1.43638631	     -6.46427215	     17.19221622	     10.61751812	     -0.55999883	     43.06771873	      0.75167349	     15.67882577
     16.81333333	      7.03548207	      7.22519700	      4.23961713	      2.17332900	      0.82986384	      1.04714102	     -7.41768466	    -13.29037399	    -12.68621227	     85.17942526	      1.48666143	     -6.00118781	     16.08993044	     11.04384317	     -0.24124592	     44.37791050	      0.77454065	     17.41019876
     16.82000000	      6.68532664	      7.51279976	      4.15316778	      2.17116469	      0.82680600	      1.04702763	     -4.49085468	    -13.66595983	    -11.34527163	     88.13733612	      1.53828671	     -5.66912804	     15.90971347	     11.27506966	     -0.32514781	     45.46324411	      0.79348330	     18.71895489
     16.82666667	      6.56420674	      7.74945957	      4.17150397	      2.16891626	      0.82445238	      1.04685906	     -1.85658019	    -13.92863640	    -10.19681644	     90.71840533	      1.58333487	     -5.34501389	     15.33350065	     11.44840391	     -0.30587392	     46.30792813	      0.80822582	     19.92031676
     16.83333333	      6.72915954	      8.14010544	      4.00929352	      2.16672526	      0.82295624	      1.04688173	      0.50432739	    -14.33629341	     -8.94572821	     92.98258751	      1.62285230	     -5.07131188	     14.18417566	     11.71830270	     -0.44445148	     46.66355669	      0.81443270	     20.87891525
     16.84000000	      6.38899174	      8.32266224	      3.93104982	      2.16457659	      0.82145538	      1.04680018	      3.49252975	    -14.46357232	     -7.65933009	     95.00461205	      1.65814328	     -4.84093654	     13.51337420	     11.81148028	     -0.55450011	     46.91371804	      0.81879884	     21.75750049
     16.84666667	      6.45976114	      8.60559410	      3.78995227	      2.16259041	      0.82098954	      1.04677819	      5.95107341	    -14.67708525	     -6.46378808	     96.60947643	      1.68615345	     -4.67849909	     12.12189212	     11.99916263	     -0.61624664	     46.68482145	      0.81480385	     22.35288328
     16.85333333	      6.10483753	      8.72189283	      3.73381917	      2.16072915	      0.82063680	      1.04661528	      8.85870038	    -14.67808566	     -5.32306215	     97.89746191	      1.70863304	     -4.51406153	     11.10690981	     12.07546991	     -0.60222858	     46.32238649	      0.80847816	     22.90815833
     16.86000000	      6.19168379	      8.63443731	      4.00571653	      2.15905052	      0.82140629	      1.04607382	     10.95614195	    -14.45151321	     -4.74881231	     98.61065455	      1.72108060	     -4.30034217	      9.42061128	     12.03347835	      0.01714620	     45.72582173	      0.79806614	     23.40639087
     16.86666667	      5.98341455	      8.93395484	      3.76334176	      2.15776260	      0.82236269	      1.04594504	     13.56363602	    -14.66877188	     -3.60382120	     99.19438105	      1.73126855	     -4.12258154	      7.81077523	     12.29751269	     -0.08054226	     44.55448949	      0.77762254	     23.47490848
